<?xml version="1.0" standalone="no"?><!DOCTYPE svg PUBLIC "-//W3C//DTD SVG 1.1//EN" "http://www.w3.org/Graphics/SVG/1.1/DTD/svg11.dtd"><svg t="1591194449594" class="icon" viewBox="0 0 1024 1024" version="1.1" xmlns="http://www.w3.org/2000/svg" p-id="1317" xmlns:xlink="http://www.w3.org/1999/xlink" width="200" height="200"><defs><style type="text/css"></style></defs><path d="M832 64 192 64C121.344 64 64 121.344 64 192l0 640c0 70.656 57.344 128 128 128l640 0c70.656 0 128-57.344 128-128L960 192C960 121.344 902.656 64 832 64zM768 320 576 320l0 448c0 35.392-28.608 64-64 64s-64-28.608-64-64L448 320 256 320C220.608 320 192 291.392 192 256s28.608-64 64-64l512 0c35.392 0 64 28.608 64 64S803.392 320 768 320z" p-id="1318" fill="#bfbfbf"></path></svg>